<svg width="26" height="26" viewBox="0 0 26 26" fill="none" xmlns="http://www.w3.org/2000/svg">
<path d="M7.04167 21.6667H5.41667C4.22005 21.6667 3.25 20.6966 3.25 19.5V4.33333C3.25 3.13671 4.22005 2.16666 5.41667 2.16666H20.5833C21.78 2.16666 22.75 3.13671 22.75 4.33333V19.5C22.75 20.6966 21.78 21.6667 20.5833 21.6667H18.9583M13 20.5833C14.795 20.5833 16.25 19.1283 16.25 17.3333C16.25 15.5384 14.795 14.0833 13 14.0833C11.205 14.0833 9.75 15.5384 9.75 17.3333C9.75 19.1283 11.205 20.5833 13 20.5833ZM13 20.5833L13.0232 20.5831L9.56439 24.042L6.50026 20.9778L9.77129 17.7068M13 20.5833L16.4589 24.042L19.523 20.9778L16.252 17.7068M9.75 6.5H16.25M7.58333 10.2917H18.4167" stroke="white" stroke-width="1.5" stroke-linecap="round" stroke-linejoin="round"/>
</svg>
